<svg width="30" height="30" viewBox="0 0 30 30" fill="none" xmlns="http://www.w3.org/2000/svg">
<path d="M23.7501 13.75H26.2501M25.0001 12.5V15M15.0001 3.74993C15.1651 3.74993 15.3289 3.74993 15.4914 3.74993C12.1778 6.82889 11.5351 11.8347 13.9635 15.6508C16.3919 19.4669 21.1988 21.005 25.3914 19.3074C23.2255 24.5188 17.5336 27.3191 12.0834 25.8545C6.63317 24.39 3.11146 19.114 3.84941 13.5189C4.58735 7.92379 9.35654 3.74129 15.0001 3.73993V3.74993ZM21.2501 5C21.2501 6.38071 22.3694 7.5 23.7501 7.5C22.3694 7.5 21.2501 8.61929 21.2501 10C21.2501 8.61929 20.1308 7.5 18.7501 7.5C20.1308 7.5 21.2501 6.38071 21.2501 5Z" stroke="black" stroke-width="1.5" stroke-linecap="round" stroke-linejoin="round"/>
</svg>
